<?xml version="1.0" encoding="UTF-8"?>
<svg id="Capa_2" data-name="Capa 2" xmlns="http://www.w3.org/2000/svg" viewBox="0 0 592.08 276.05">
  <defs>
    <style>
      .cls-1 {
        fill: #fff;
      }
    </style>
  </defs>
  <g id="Capa_1-2" data-name="Capa 1">
    <g>
      <path class="cls-1" d="M592.08,223.97v8.66l-20.56.03-.06,43.23-17.96-.07-.05-43.31-60.04.1c-1.49,0-2.43,1.29-2.59,2.52l.3,8.96,37.52.02-.05,8.62-37.63.05-.03,12.23c0,.94,1.38,2.17,2.46,2.17h38.75s0,8.74,0,8.74l-48.87-.16c-5.5-.02-9.73-4.71-9.94-9.93-.43-10.63-.42-20.9-.02-31.49.22-5.96,4.78-10.35,10.97-10.35l107.81-.03Z"/>
      <path class="cls-1" d="M390.92,188.17l-191.62.02-.16-40.88-199.03-.04L55.27,41.02h143.89s.06-41.02.06-41.02h191.63s.25,41.15.25,41.15h199.39s-55.15,106.14-55.15,106.14h-144.35s-.06,40.87-.06,40.87ZM366.73,164.56l.06-40.95h128.4s30.43-58.79,30.43-58.79l-158.81-.03-.12-41h-143.1s-.13,40.85-.13,40.85h-127.99s-30.42,58.76-30.42,58.76l158.44.04.08,41.14h143.16Z"/>
      <path class="cls-1" d="M158.88,232.64c-1.76,0-2.94.98-3.23,2.12l.16,9.44,37.65.02-.02,8.53-37.68.03-.08,12.1c0,.86,1.38,2.23,2.27,2.23l38.96.02v8.82s-48.62-.15-48.62-.15c-5.8-.02-10.03-4.8-10.23-10.35-.38-10.63-.29-20.75-.06-31.33.75-5.73,4.62-10.08,10.79-10.09l67.5-.1,17.31,42.43c.4.98,2.52.96,3.62.46l17.57-42.79,13.63.12-20.59,47.3c-1.16,2.67-3.79,4.48-6.56,4.49l-18.04.02c-2.77-.33-5.65-2.05-6.86-4.82l-16.86-38.43-40.62-.06Z"/>
      <path class="cls-1" d="M319.5,276.05l-26.19-22.59-.09-8.03,23.19-.15c.3-4.61.27-7.96-.09-12.58l-28.2-.04-.02,43.26-17.74.03-.02-51.71,54.01.03c5.19,0,8.87,3.42,9.84,8.14.49,6.94,1.99,19.87-8.39,20.35l-12.19.57,30.11,22.48-24.23.24Z"/>
      <path class="cls-1" d="M406.47,265.22c-.17,5.75-4.34,10.57-10.09,10.57h-44.6c-5.42,0-9.64-4.65-9.89-9.86-.51-10.86-.52-21.41.1-32.21.31-5.44,4.76-9.63,10.22-9.64l43.73-.02c5.79,0,10.23,4.32,10.46,10.08.42,10.31.37,20.22.06,31.07ZM386.5,267.2c1,0,2.22-1.46,2.22-2.31v-29.68c.01-1.26-1.04-2.69-2.29-2.69h-24.57c-1.25.01-2.34,1.46-2.34,2.68l.02,29.72c0,1.13,1.36,2.28,2.44,2.28h24.52Z"/>
      <polygon class="cls-1" points="128.98 275.9 111 275.96 110.94 252.69 82.35 252.7 82.29 275.96 64.24 275.9 64.27 223.95 82.26 223.98 82.41 244.36 110.88 244.29 110.92 223.98 128.94 223.93 128.98 275.9"/>
      <path class="cls-1" d="M20.71,267.13h37.2s.16,8.82.16,8.82l-47.28-.14c-5.4-.02-9.48-4.21-10.04-9.07-.89-7.68-.91-17.64-.48-25.24l.39-6.83c.34-5.93,4.36-10.6,10.56-10.62l45.42-.12.18,8.67-35.83.02c-1.31,0-2.75,1.04-2.75,2.36v29.54c0,1.13,1.1,2.59,2.47,2.59Z"/>
      <polygon class="cls-1" points="471.15 267.13 471.22 275.94 415.7 275.95 415.71 224 433.66 223.92 433.72 267.07 471.15 267.13"/>
    </g>
  </g>
</svg>