<?xml version="1.0" encoding="UTF-8"?>
<svg id="Capa_2" data-name="Capa 2" xmlns="http://www.w3.org/2000/svg" viewBox="0 0 663.35 431.61">
  <defs>
    <style>
      .cls-1 {
        fill: #fff;
      }
    </style>
  </defs>
  <g id="Capa_1-2" data-name="Capa 1">
    <g>
      <path class="cls-1" d="M340.97,0c1.29,0,2.68.45,4.26.58,81.16,7.04,141.04,77.17,137.45,157.14-3.62,80.46-70.25,143.83-150.7,143.84-80.37,0-146.94-63.31-150.72-143.73C177.51,77.8,237.53,7.62,318.82.58c1.33-.11,3.04.03,4.25-.58h17.91ZM331.96,241.49c34.65-33.32,47.64-80.89,33.88-126.81-12.12-40.44-45.36-73.01-88.88-84.24,73.78-9.99,138.35,48.46,137.28,121.98,18.25-16,30.58-36.71,37.1-59.36C419.31,27.27,340.78,0,275.35,30.95c-65.08,30.79-94.55,108.66-63.66,175.3-14.38-76.3,43.25-145.95,120.41-146.05-34.63,33-47.91,81.14-33.83,127.31,12.33,40.42,46.31,73.47,89.1,83.57,66.34-30.39,96.01-109.32,64.81-176.16,14.78,76.36-42.87,146.47-120.21,146.57ZM385.69,271.8c-74.07,8.04-136.94-49.51-135.94-122.55-18.14,15.98-30.64,36.64-37.02,59.32,31.27,64.24,107.89,92.39,172.96,63.23Z"/>
      <path class="cls-1" d="M663.35,361.47v16.26h-47.1c-4.93,0-8.76,3.81-8.76,8.76l-.02,19.88c0,5.51,4.2,9,9.43,8.99l29.86-.07-.05-12.69-21.98-.05v-15.06s38.61-.01,38.61-.01v44.11h-54.39c-10.2-.83-17.52-8.58-18.42-18.64l.18-33.06c.05-9.59,8.49-18.27,18.2-18.29l54.43-.13Z"/>
      <path class="cls-1" d="M318.92,402.62l-22.08-.06.12-15.08,39.07.07-.05,44.01-55.34.06c-10.14-1.21-17.31-9.11-17.94-19.24l.13-31.88c.04-9.91,8.36-18.87,18.4-18.89l54.69-.12.08,16.25h-47.43c-5.08.02-8.76,3.73-8.78,8.79l-.06,19.24c-.02,5.29,3.19,9.6,8.87,9.59l30.3-.03.02-12.69Z"/>
      <path class="cls-1" d="M17.26,387.47v27.85s30.53,0,30.53,0c5.06,0,8.56-4,8.8-8.91l-.15-20.57c-.03-4.71-4.22-8.11-8.62-8.11H.22s0-16.25,0-16.25l54.84.12c9.71.02,18.16,8.66,18.23,18.3l.21,32.5c-.65,10.18-8.43,19.1-19.08,19.12l-54.42.08.07-44.03,17.19-.12Z"/>
      <path class="cls-1" d="M143.66,431.59h-37.53c-9.85-1.15-17.81-9.06-17.78-19.21l.09-32.53c.03-9.76,8.67-18.24,18.31-18.25l35.97-.02c10.06,0,18.56,8.82,18.58,18.91l.08,31.22c.03,10.21-7.32,18.55-17.72,19.88ZM136.47,415.33c4.44-.49,7.97-3.95,7.97-8.32v-20.99c-.02-5.03-4.39-8.31-9.02-8.31l-21.35.02c-4.92,0-8.9,3.66-8.89,8.79l.06,20.55c.01,4.86,4.29,8.27,8.81,8.27h22.42Z"/>
      <polygon class="cls-1" points="489.22 402.08 443.78 402.13 443.84 416.18 489.23 416.2 489.13 431.57 427.39 431.58 427.35 361.5 489.2 361.47 489.2 376.9 443.94 376.92 443.78 386.8 489.19 386.85 489.22 402.08"/>
      <path class="cls-1" d="M247.95,431.34c-5.58.31-10.74.3-16.25.04l-39.13-43.92-.22,43.96-16.23-.1v-69.77s16.18-.07,16.18-.07l39.33,44.95.25-44.9,16.07-.02v69.83Z"/>
      <path class="cls-1" d="M575.79,431.37l-16.15.14-39.5-44.35-.12,44.24c-5.64.24-10.78.26-16.04-.15v-69.73s16.07-.05,16.07-.05l39.25,44.85.25-44.79,16.22-.05v69.89Z"/>
      <polygon class="cls-1" points="367.28 402.11 367.14 431.36 350.78 431.39 350.76 386.83 412.53 386.82 412.63 402.09 367.28 402.11"/>
      <path class="cls-1" d="M412.62,376.9h-61.86c.47-7.95,6.32-15.21,14.25-15.24l47.54-.19.07,15.43Z"/>
    </g>
  </g>
</svg>