<?xml version="1.0" encoding="UTF-8"?>
<svg id="Capa_2" data-name="Capa 2" xmlns="http://www.w3.org/2000/svg" viewBox="0 0 842.94 244.7">
  <defs>
    <style>
      .cls-1 {
        fill: #fff;
      }
    </style>
  </defs>
  <g id="Capa_1-2" data-name="Capa 1">
    <g>
      <path class="cls-1" d="M0,138.81v-32.93C10.82,41.76,65.55-4.11,130.91.29c64.27,4.33,114.06,58.15,113.62,122.77-.44,64.38-50.86,117.8-115.19,121.44C64.6,248.16,10.78,202.33,0,138.81ZM102.01,16.32C42.06,27.65,4.78,85.29,16.13,143.15c11.44,58.33,68.04,96.56,126.63,85.18,57.56-11.17,96.18-67,85.69-124.91C217.89,45.17,162.34,4.92,102.01,16.32Z"/>
      <path class="cls-1" d="M713.56,167.84l-56.55.05c-11.07,0-20.4-8.48-20.77-19.44-.4-11.59-.39-22.42-.06-34.1.28-10.06,8.53-19.46,19.14-19.46h59.12c10.59-.01,19.25,9.31,19.23,19.48l-.07,34.09c-.02,10.26-8.82,19.38-20.03,19.39ZM711.88,146.61l-.54-31.17-52.55.05c-1.48,11.76-1.75,21.23.7,31.59l52.39-.47Z"/>
      <path class="cls-1" d="M484.72,167.83l-56.54.05c-11.18,0-20.69-8.7-20.65-19.75l.14-34.79c.04-9.63,8.98-18.48,18.75-18.48l59.19-.03c10.45,0,19.27,8.98,19.26,19.3l-.03,34.27c-.01,10.39-8.86,19.42-20.11,19.43ZM483.11,146.65l-.55-31.23-52.43.11c-1.2,11.96-1.33,20.96.63,31.52l52.35-.4Z"/>
      <path class="cls-1" d="M821.14,121.17c0-2.63-3.64-5.9-5.85-5.89l-39.86.16v52.39s-22.26.01-22.26.01l.02-73.06,69.8.1c11.06.02,19.48,8.73,19.95,19.07l-.07,54.01-21.68-.02-.06-46.76Z"/>
      <path class="cls-1" d="M370.36,127.26l.05,19.79-51.21-.02-.49,20.59-21.61-.2.17-54.04c.03-9.75,8.84-18.86,18.67-18.89l71.17-.2.03,20.62-66.51.15-1.4,12.23,51.12-.03Z"/>
      <polygon class="cls-1" points="581.94 167.91 559.82 167.97 559.73 115.44 521.29 115.3 521.18 94.8 619.82 94.72 620.23 115.25 582.12 115.47 581.94 167.91"/>
      <path class="cls-1" d="M131.16,211.19c-2.19,3.02-6.27,5.58-8.57,5.55-2.79-.03-7.49-2.54-9.22-4.91l-14.18-19.43c-2.92-4-3.05-9.5.11-13.85l80.85-111.44c3-4.13,8.27-4.94,11.97-2.03l18.97,26.07c1.1,3.37.99,8.77-1.42,12.09l-78.51,107.95Z"/>
      <path class="cls-1" d="M83.6,170.22l-16.92-22.58c-2.49-3.32-3.17-9.53-.52-13.17l48.15-66.1c1.77-2.42,7.57-5.3,10.39-5.3h33.76c1.66.01,5.07,1.35,6.31,2.44,1.5,1.31,2.13,7.25.12,10.02-20.19,27.9-45.3,62.57-68.11,94.08-2.08,2.88-11.25,3.2-13.19.62Z"/>
      <path class="cls-1" d="M49.09,122.97l-15.46-21.35c-2.08-2.88-2.02-8.56,0-11.31l16.25-22.15c1.96-2.67,7.25-5.2,10.67-5.19l33.67.13c1.82,0,5.05,1.22,6.23,2.36,1.42,1.37,2.55,7.26,1.06,9.35l-35.15,49.16c-4.53,6.34-13.71,3.91-17.27-1.01Z"/>
    </g>
  </g>
</svg>