<?xml version="1.0" encoding="UTF-8"?>
<svg id="Capa_2" data-name="Capa 2" xmlns="http://www.w3.org/2000/svg" viewBox="0 0 146.62 146.62">
  <defs>
    <style>
      .cls-1 {
        fill: #fff;
      }

      .cls-2 {
        fill: #0135cc;
      }
    </style>
  </defs>
  <g id="Capa_1-2" data-name="Capa 1">
    <g>
      <rect class="cls-2" width="146.62" height="146.62" rx="23.32" ry="23.32"/>
      <g>
        <path class="cls-1" d="M84.23,81.32l-.05-18.88-10.71,11.54-10.88-11.19v18.54h-6.78v-27h6.54l11.14,11,10.95-11h6.49l.09,27h-6.79Z"/>
        <rect class="cls-1" x="55.82" y="86.84" width="35.2" height="5.13"/>
        <path class="cls-1" d="M92.4,40.72h-38.17c-7.36,0-13.31,5.96-13.31,13.31v38.55c0,7.36,5.96,13.31,13.31,13.31h38.17c7.36,0,13.31-5.96,13.31-13.31v-38.55c0-7.36-5.96-13.31-13.31-13.31ZM100.39,92.42c0,4.49-3.64,8.13-8.13,8.13h-37.91c-4.49,0-8.13-3.64-8.13-8.13v-38.22c0-4.49,3.64-8.13,8.13-8.13h37.9c4.49,0,8.13,3.64,8.13,8.13v38.22h0Z"/>
      </g>
    </g>
  </g>
</svg>
