<?xml version="1.0" encoding="UTF-8"?>
<svg id="Capa_2" data-name="Capa 2" xmlns="http://www.w3.org/2000/svg" viewBox="0 0 380 70">
  <defs>
    <style>
      .cls-1 {
        fill: #fff;
      }
    </style>
  </defs>
  <g id="Capa_1-2" data-name="Capa 1">
    <g>
      <path class="cls-1" d="M126.87,49.33l-.05-20.07-11.48,12.26-11.67-11.89v19.7h-7.27v-28.7h7.01l11.93,11.69,11.74-11.69h6.96l.1,28.7s-7.27,0-7.27,0Z"/>
      <path class="cls-1" d="M173.88,26.52v-5.89h-26.76c-3.17,0-5.74,2.57-5.74,5.74v17.23c0,3.17,2.57,5.74,5.74,5.74h26.76v-5.89h-24.07v-5.57h18.67v-5.84h-18.67v-5.52s24.07,0,24.07,0Z"/>
      <path class="cls-1" d="M340.99,26.52h0c0-2.11-3.57-5.89-9.33-5.89h-17.09c-3.13,0-5.66,2.53-5.66,5.66v5.99c0,3.09,2.51,5.6,5.6,5.6h18.77v5.57h-16.55c-1.03,0-2.02-.43-2.72-1.19l-.93-1.02-4.16,2.68s2.98,5.41,7.7,5.41h18.72c3.13,0,5.66-2.54,5.66-5.66v-5.83c0-3.2-2.59-5.79-5.79-5.79h-18.57v-5.52h15.74c.99,0,1.95.33,2.73.94l1.55,1.21,4.33-2.16Z"/>
      <path class="cls-1" d="M278.13,20.63v22.81h-15.89v-22.81h-8.23v20.47c0,4.54,3.68,8.23,8.23,8.23h15.89c4.54,0,8.23-3.68,8.23-8.23v-20.47h-8.23Z"/>
      <rect class="cls-1" x="293.3" y="20.63" width="8.23" height="28.7"/>
      <polygon class="cls-1" points="239.54 20.63 239.54 32.03 223.14 32.03 223.14 20.63 215.28 20.63 215.28 49.33 223.14 49.33 223.14 37.87 239.54 37.87 239.54 49.33 247.4 49.33 247.4 20.63 239.54 20.63"/>
      <polygon class="cls-1" points="372.14 20.63 372.14 32.03 355.75 32.03 355.75 20.63 347.88 20.63 347.88 49.33 355.75 49.33 355.75 37.87 372.14 37.87 372.14 49.33 380 49.33 380 20.63 372.14 20.63"/>
      <path class="cls-1" d="M189.3,43.44v-22.81h-8.06v23.28c0,2.99,2.43,5.42,5.42,5.42h21.67v-5.89s-19.03,0-19.03,0Z"/>
      <g>
        <path class="cls-1" d="M46.53,43.6l-.05-20.28-11.5,12.39-11.69-12.02v19.91h-7.28V14.6h7.02l11.96,11.81,11.76-11.81h6.97l.1,29h-7.29Z"/>
        <rect class="cls-1" x="16.01" y="49.53" width="37.81" height="5.51"/>
        <path class="cls-1" d="M55.3,0H14.3C6.4,0,0,6.4,0,14.3v41.4c0,7.9,6.4,14.3,14.3,14.3h41c7.9,0,14.3-6.4,14.3-14.3V14.3c0-7.9-6.4-14.3-14.3-14.3ZM63.89,55.53c0,4.82-3.91,8.73-8.73,8.73H14.44c-4.82,0-8.73-3.91-8.73-8.73V14.48c0-4.82,3.91-8.73,8.73-8.73h40.71c4.82,0,8.73,3.91,8.73,8.73v41.05h.01Z"/>
      </g>
    </g>
  </g>
</svg>
